<?xml version="1.0" encoding="utf-8"?>
<!-- Generator: Adobe Illustrator 26.3.1, SVG Export Plug-In . SVG Version: 6.00 Build 0)  -->
<svg version="1.1" id="Warstwa_1" xmlns="http://www.w3.org/2000/svg" xmlns:xlink="http://www.w3.org/1999/xlink" x="0px" y="0px"
	 viewBox="0 0 895.1 1107.2" style="enable-background:new 0 0 895.1 1107.2;" xml:space="preserve">
<style type="text/css">
	.st0{fill:#202D35;}
</style>
<g id="Group_3472" transform="translate(-1781.985 -244.544)">
	<path id="Path_613" class="st0" d="M2126.2,308.3c0,3.1-0.3,6.1,0.1,9c1.7,11.8,11,19.6,23.4,19.6c34.3,0,68.6,0,102.9,0
		c19.5,0,39,0,58.5,0c16.2,0,25.3-9.1,25.3-25.2v-3.5h256.9v891.6h-727.1V308.3H2126.2z M2229.7,1145.4c96.2,0,192.4,0,288.6,0
		c16.3,0,27.5-11.1,27.5-27.4c0-188.2,0-376.5,0-564.7c0-16.1-11.3-27.3-27.3-27.3h-577.2c-16.2,0-27.5,11.3-27.5,27.4
		c0,188.1,0,376.2,0,564.4c0,16.4,11.2,27.6,27.7,27.6C2037.5,1145.4,2133.6,1145.4,2229.7,1145.4z M2386.6,514.2
		c29.8,0,59.6,0,89.4,0c10.3,0,16.1-5.8,16.1-16c0-30,0-60,0-90c0-10.2-5.8-16.3-16-16.3c-59.5,0-119,0-178.5,0
		c-9.9,0-15.8,6.2-15.8,16.1c0,30.1,0,60.3,0,90.4c0,9.9,6,15.9,16,15.9C2327.5,514.3,2357.1,514.3,2386.6,514.2z M2500.1,412.8
		c0,9.7,7.8,17.6,17.5,17.7c9.7,0,17.6-7.8,17.7-17.5c0-9.7-7.8-17.6-17.5-17.7C2508.1,395.3,2500.2,403.1,2500.1,412.8z"/>
	<path id="Path_614" class="st0" d="M1866.2,1351.8v-145.9h727.2v145.9H1866.2z M2230.8,1223.5c-22.8,0-45.6,0-68.4,0
		c-5.9,0-8.1,2.2-8.1,8.2c0,10.1,0,20.2,0,30.2c0,5.9,2.3,8.2,8.2,8.2c45.6,0,91.1,0,136.7,0c5.7,0,7.8-2.2,7.9-8
		c0-10.1,0-20.2,0-30.2c0-6.3-2-8.3-8.2-8.3C2276.2,1223.5,2253.5,1223.5,2230.8,1223.5z"/>
	<path id="Path_615" class="st0" d="M2125.9,244.7v57.5h-260c0-6.5,0.6-13.1-0.1-19.4c-1.1-9.3,1.9-15.9,9.3-21.6
		c5.8-4.4,10.7-10,16.2-14.9c1.1-1,2.5-1.6,4-1.7c76.4-0.1,152.7-0.1,229.1-0.1C2124.7,244.6,2125.2,244.7,2125.9,244.7z"/>
	<path id="Path_616" class="st0" d="M2593.2,302.3h-256.7v-57.7h3.5c74.6,0,149.2,0,223.8,0c2.1-0.1,4,0.7,5.5,2.2
		c7.4,7.2,14.9,14.2,22.2,21.4c1,0.9,1.7,2.1,1.9,3.5c0.1,9.9,0.1,19.7,0.1,29.6C2593.4,301.6,2593.3,301.9,2593.2,302.3z"/>
	<path id="Path_617" class="st0" d="M2131.9,244.8h198.6v3.4c0,21.8,0,43.6,0,65.4c0,10.4-6.9,17.6-17.4,17.8
		c-7.1,0.2-14.2,0-21.4,0c-47,0-94,0-141,0c-9.6,0-16.2-4.6-18.4-12.7c-0.4-1.3-0.5-2.6-0.5-3.9c0-22.9,0-45.8,0-68.7
		C2131.8,245.8,2131.9,245.4,2131.9,244.8z M2230.7,311.1c22.9,0,45.8,0,68.7,0c5.6,0,7.7-2.1,7.7-7.7c0-10.3,0-20.6,0-30.9
		c0-5.8-2.1-7.8-8-7.8c-45.6,0-91.2,0-136.7,0c-5.7,0-8,2.2-8,8c0,10.2,0,20.4,0,30.6c0,5.8,2.2,7.9,7.9,7.9
		C2185.1,311.1,2207.9,311.1,2230.7,311.1z"/>
	<path id="Path_618" class="st0" d="M2230,531.6c95.5,0,191.1,0.1,286.6-0.1c14.3,0,23.6,9.8,23.6,23.7
		c-0.2,187.1-0.2,374.3-0.1,561.4c0,11.4-5.2,19.4-14.8,22.2c-2.4,0.7-4.9,1.1-7.4,1c-192.1,0-384.1,0.1-576.2,0
		c-13.7,0-22.3-8.9-22.3-22.9c0-84.1,0-168.3,0-252.4c0-103.3,0-206.6,0-309.9c0-5.5,1-10.7,4.5-15.1c4.5-5.6,10.4-8,17.5-8
		c23.7,0,47.3,0.1,71,0L2230,531.6z M1968.7,1102.4H2492V875.2h-3.7c-13.5,0-27,0-40.4,0c-8.9,0-14.1-5.2-14.1-14.1
		c0-16.9,0-33.7,0-50.6c0-9.1,5.1-14.3,14.2-14.3c13.5,0,27,0,40.4,0h3.5V568.9h-523.2V1102.4z M2472.5,857.4
		c12-0.1,21.7-9.9,21.6-21.9c-0.1-12-9.9-21.7-21.9-21.6c-12,0.1-21.7,9.9-21.6,21.9c0,0,0,0.1,0,0.1c0,11.9,9.8,21.6,21.7,21.5
		C2472.4,857.4,2472.4,857.4,2472.5,857.4L2472.5,857.4z"/>
	<path id="Path_619" class="st0" d="M2517.6,424.7c-6.5,0-11.8-5.4-11.8-11.9c0-6.5,5.4-11.8,11.9-11.8c6.5,0,11.9,5.2,11.9,11.7
		c0,6.5-5.2,11.9-11.7,11.9C2517.8,424.7,2517.7,424.7,2517.6,424.7z"/>
	<path id="Path_620" class="st0" d="M2301.3,1229.6v34.6h-140.9v-34.6H2301.3z"/>
	<path id="Path_621" class="st0" d="M2301.4,270.6v34.7h-141v-34.7H2301.4z"/>
	<path id="Path_622" class="st0" d="M2479,836.5c-0.1,8.2-7.3,14.2-14.3,11.5c-1.1-0.5-1.8-1.5-2-2.7c-0.1-5.9,0.2-11.8,0.2-17.7
		c0-2.3,1-3,3-3.4C2472.9,823,2479.1,828.6,2479,836.5z"/>
	<path id="Path_623" class="st0" d="M2486.6,408.4c0-7.5-3.4-10.8-10.9-10.8c-29.6,0-59.2,0-88.7,0c-29.6,0-59.2,0-88.7,0
		c-7.2,0-10.6,3.4-10.6,10.6c0,29.8,0,59.6,0,89.4c0,7.6,3.4,11.1,11,11.1c59,0,118.1,0,177.1,0c7.3,0,10.8-3.6,10.9-10.9
		C2486.6,468,2486.6,438.2,2486.6,408.4z M2468.3,498h-162.5v-89.5h162.5L2468.3,498z"/>
</g>
</svg>
