<?xml version="1.0" encoding="utf-8"?>
<!-- Generator: Adobe Illustrator 26.3.1, SVG Export Plug-In . SVG Version: 6.00 Build 0)  -->
<svg version="1.1" id="Warstwa_1" xmlns="http://www.w3.org/2000/svg" xmlns:xlink="http://www.w3.org/1999/xlink" x="0px" y="0px"
	 viewBox="0 0 108 81" style="enable-background:new 0 0 108 81;" xml:space="preserve">
<style type="text/css">
	.st0{fill-rule:evenodd;clip-rule:evenodd;fill:#C1C2C4;}
	.st1{fill-rule:evenodd;clip-rule:evenodd;fill:#F3F3F3;}
	.st2{fill-rule:evenodd;clip-rule:evenodd;fill:#202D35;}
	.st3{fill-rule:evenodd;clip-rule:evenodd;fill:#707070;}
</style>
<g id="_x30_419-data-collection-update">
	<g id="Print-settings" transform="translate(672.000000, 447.000000)">
		<rect id="Rectangle" x="-664" y="-444" class="st0" width="100" height="78"/>
		
			<rect id="Rectangle_00000053529172541436582170000005382310107983559319_" x="-672" y="-447" class="st1" width="103" height="78"/>
		<rect id="Rectangle_00000058591283696847397650000003047903944982119840_" x="-643" y="-407" class="st2" width="1" height="13"/>
		<rect id="Rectangle_00000160192633757339606730000016098490322227878310_" x="-654" y="-394" class="st2" width="12" height="1"/>
		<rect id="Rectangle-Copy-5" x="-654" y="-392" class="st3" width="29" height="1"/>
		<rect id="Rectangle-Copy-27" x="-654" y="-390" class="st3" width="29" height="1"/>
		<path id="Rectangle-Copy-28" class="st3" d="M-607-424L-607-424c0.6,0,1,0.4,1,1v30c0,0.6-0.4,1-1,1l0,0c-0.6,0-1-0.4-1-1v-30
			C-608-423.6-607.6-424-607-424z"/>
		<path id="Rectangle-Copy-29" class="st3" d="M-597-424L-597-424c0.6,0,1,0.4,1,1v30c0,0.6-0.4,1-1,1l0,0c-0.6,0-1-0.4-1-1v-30
			C-598-423.6-597.6-424-597-424z"/>
		<path id="Rectangle-Copy-30" class="st3" d="M-587-424L-587-424c0.6,0,1,0.4,1,1v30c0,0.6-0.4,1-1,1l0,0c-0.6,0-1-0.4-1-1v-30
			C-588-423.6-587.6-424-587-424z"/>
		
			<rect id="Rectangle_00000059298382254999287820000001081822340488837009_" x="-647" y="-422" class="st3" width="14" height="12"/>
		<path id="Path-4" class="st3" d="M-652.4-422h4.4v12l-5.3-10.6c-0.2-0.5,0-1.1,0.4-1.3C-652.7-422-652.5-422-652.4-422z"/>
		<path id="Path-4_00000181778572422920557540000007188610197838985656_" class="st3" d="M-627.6-422h-4.4v12l5.3-10.6
			c0.2-0.5,0-1.1-0.4-1.3C-627.3-422-627.5-422-627.6-422z"/>
		<path id="Path-5" class="st3" d="M-644-410l0.7,0.9c0.3,0.4,1,0.5,1.4,0.2c0.1-0.1,0.1-0.1,0.2-0.2l0.7-0.9H-644z"/>
		<polygon id="Path-6" class="st3" points="-647,-423 -633,-423 -635,-427 -645,-427 		"/>
		<circle id="Oval-Copy" class="st2" cx="-607" cy="-420" r="3"/>
		<circle id="Oval-Copy-2" class="st2" cx="-597" cy="-404" r="3"/>
		<circle id="Oval-Copy-16" class="st2" cx="-587" cy="-397" r="3"/>
	</g>
</g>
</svg>
