<?xml version="1.0" encoding="utf-8"?>
<!-- Generator: Adobe Illustrator 26.3.1, SVG Export Plug-In . SVG Version: 6.00 Build 0)  -->
<svg version="1.1" id="Warstwa_1" xmlns="http://www.w3.org/2000/svg" xmlns:xlink="http://www.w3.org/1999/xlink" x="0px" y="0px"
	 viewBox="0 0 108 81" style="enable-background:new 0 0 108 81;" xml:space="preserve">
<style type="text/css">
	.st0{fill-rule:evenodd;clip-rule:evenodd;fill:#C1C2C4;}
	.st1{fill-rule:evenodd;clip-rule:evenodd;fill:#F3F3F3;}
	.st2{fill-rule:evenodd;clip-rule:evenodd;fill:#202D35;}
	.st3{fill:none;stroke:#202D35;}
	.st4{fill-rule:evenodd;clip-rule:evenodd;fill:#FFFFFF;stroke:#202D35;}
</style>
<rect id="Rectangle" x="8" y="3" class="st0" width="100" height="78"/>
<rect id="Rectangle_00000145029903623649376930000013384968157165811079_" y="0" class="st1" width="103" height="78"/>
<rect id="Rectangle_00000088127505711211256460000009458509230324432777_" x="13" y="49" class="st2" width="3" height="16"/>
<rect id="Rectangle-Copy-9" x="26" y="39" class="st2" width="3" height="26"/>
<rect id="Rectangle-Copy-10" x="39" y="59" class="st2" width="3" height="6"/>
<rect id="Rectangle-Copy-11" x="52" y="56" class="st2" width="3" height="9"/>
<rect id="Rectangle-Copy-12" x="65" y="49" class="st2" width="3" height="16"/>
<rect id="Rectangle-Copy-13" x="78" y="51" class="st2" width="3" height="14"/>
<rect id="Rectangle-Copy-15" x="91" y="30" class="st2" width="3" height="35"/>
<polyline id="Path-2" class="st3" points="14,44.1 27.5,30.5 40.5,42.5 53.5,48.5 66.5,35.5 79.4,32.5 92.5,20.5 "/>
<circle id="Oval" class="st4" cx="14.5" cy="43.5" r="2"/>
<circle id="Oval-Copy-8" class="st4" cx="27.5" cy="30.5" r="2"/>
<circle id="Oval-Copy-9" class="st4" cx="40.5" cy="42.5" r="2"/>
<circle id="Oval-Copy-10" class="st4" cx="53.5" cy="48.5" r="2"/>
<circle id="Oval-Copy-11" class="st4" cx="66.5" cy="35.5" r="2"/>
<circle id="Oval-Copy-12" class="st4" cx="79.5" cy="32.5" r="2"/>
<circle id="Oval-Copy-13" class="st4" cx="92.5" cy="20.5" r="2"/>
<rect id="Rectangle_00000025433958353981602480000015766381255377807786_" x="7" y="10" class="st0" width="1" height="56"/>
<rect id="Rectangle_00000050631443801651539620000010222984555603807398_" x="7" y="65" class="st0" width="92" height="1"/>
</svg>
