<?xml version="1.0" encoding="utf-8"?>
<!-- Generator: Adobe Illustrator 26.3.1, SVG Export Plug-In . SVG Version: 6.00 Build 0)  -->
<svg version="1.1" id="Warstwa_1" xmlns="http://www.w3.org/2000/svg" xmlns:xlink="http://www.w3.org/1999/xlink" x="0px" y="0px"
	 viewBox="0 0 108 81" style="enable-background:new 0 0 108 81;" xml:space="preserve">
<style type="text/css">
	.st0{fill-rule:evenodd;clip-rule:evenodd;fill:#C1C2C4;}
	.st1{fill-rule:evenodd;clip-rule:evenodd;fill:#E8E9EA;}
	.st2{fill-rule:evenodd;clip-rule:evenodd;fill:#202D35;}
	.st3{fill-rule:evenodd;clip-rule:evenodd;fill:#FFFFFF;}
	.st4{fill-rule:evenodd;clip-rule:evenodd;fill:#707070;}
</style>
<rect id="Rectangle-Copy-14" x="8" y="3" class="st0" width="100" height="78"/>
<rect id="Rectangle" y="0" class="st1" width="103" height="78"/>
<ellipse id="Oval-Copy-3" class="st2" cx="26.8" cy="23.7" rx="13.7" ry="13.6"/>
<path id="Rectangle_00000031182922279233516240000006508595084782873273_" class="st0" d="M26.1,57.1h8.2c0.5,0,1,0.4,1,1l0,0
	c0,0.5-0.4,1-1,1h-8.2c-0.5,0-1-0.4-1-1l0,0C25.1,57.6,25.6,57.1,26.1,57.1z"/>
<path id="Rectangle-Copy-7" class="st0" d="M26.1,52.8h5.5c0.5,0,1,0.4,1,1l0,0c0,0.5-0.4,1-1,1h-5.5c-0.5,0-1-0.4-1-1l0,0
	C25.1,53.2,25.6,52.8,26.1,52.8z"/>
<path id="Rectangle-Copy-6" class="st0" d="M26.1,61.2H31c0.5,0,1,0.4,1,1l0,0c0,0.5-0.4,1-1,1h-4.9c-0.5,0-1-0.4-1-1l0,0
	C25.1,61.6,25.6,61.2,26.1,61.2z"/>
<ellipse id="Oval" class="st3" cx="21.7" cy="62.2" rx="1.2" ry="1.2"/>
<ellipse id="Oval-Copy-6" class="st4" cx="21.7" cy="58.1" rx="1.2" ry="1.2"/>
<ellipse id="Oval-Copy-7" class="st2" cx="21.7" cy="53.7" rx="1.2" ry="1.2"/>
<ellipse id="Oval-Copy-4" class="st2" cx="73.8" cy="23.9" rx="13.7" ry="13.6"/>
<ellipse id="Oval-Copy-5" class="st2" cx="73" cy="57.7" rx="13.7" ry="13.6"/>
<g id="Combined-Shape" transform="translate(31.420765, 16.792254) rotate(90.000000) translate(-31.420765, -16.792254) ">
	<g>
		<path id="path-1" class="st3" d="M28.3,11.6l10.5,10.3H24C24,17.9,25.7,14.3,28.3,11.6z"/>
	</g>
	<g>
		<path id="path-1_00000031175916627258809290000010177434106101872830_" class="st3" d="M28.3,11.6l10.5,10.3H24
			C24,17.9,25.7,14.3,28.3,11.6z"/>
	</g>
</g>
<g id="Combined-Shape-Copy" transform="translate(80.601093, 17.134276) scale(-1, 1) translate(-80.601093, -17.134276) ">
	<g>
		<path id="path-3" class="st3" d="M73.8,23.9c0-7.5,6.1-13.6,13.7-13.6v13.6H73.8z"/>
	</g>
	<g>
		<path id="path-3_00000153680247908524085850000000321279197472197785_" class="st3" d="M73.8,23.9c0-7.5,6.1-13.6,13.7-13.6v13.6
			H73.8z"/>
	</g>
</g>
<g id="Combined-Shape-Copy-2" transform="translate(63.155911, 57.443812) scale(1, -1) rotate(-46.000000) translate(-63.155911, -57.443812) ">
	<g>
		<path id="path-5" class="st3" d="M56.3,64.2c0-7.5,6.1-13.6,13.7-13.6l0,13.6H56.3z"/>
	</g>
	<g>
		<path id="path-5_00000134965629482399386870000015007020808207168409_" class="st3" d="M56.3,64.2c0-7.5,6.1-13.6,13.7-13.6
			l0,13.6H56.3z"/>
	</g>
</g>
<g id="Combined-Shape-Copy-3" transform="translate(68.183496, 50.804427) scale(-1, 1) rotate(90.000000) translate(-68.183496, -50.804427) ">
	<g>
		<path id="path-7" class="st4" d="M65.4,46l9.6,9.6H61.4C61.4,51.9,62.9,48.5,65.4,46z"/>
	</g>
	<g>
		<path id="path-7_00000108288586108364036170000010740581171839517885_" class="st4" d="M65.4,46l9.6,9.6H61.4
			C61.4,51.9,62.9,48.5,65.4,46z"/>
	</g>
</g>
</svg>
