<?xml version="1.0" encoding="utf-8"?>
<!-- Generator: Adobe Illustrator 26.3.1, SVG Export Plug-In . SVG Version: 6.00 Build 0)  -->
<svg version="1.1" id="Warstwa_1" xmlns="http://www.w3.org/2000/svg" xmlns:xlink="http://www.w3.org/1999/xlink" x="0px" y="0px"
	 viewBox="0 0 107 81" style="enable-background:new 0 0 107 81;" xml:space="preserve">
<style type="text/css">
	.st0{fill-rule:evenodd;clip-rule:evenodd;fill:#C1C2C4;}
	.st1{fill-rule:evenodd;clip-rule:evenodd;fill:#F3F3F3;}
	.st2{fill-rule:evenodd;clip-rule:evenodd;fill:#104CAA;}
	.st3{fill-rule:evenodd;clip-rule:evenodd;fill:#707070;}
	.st4{fill:#707070;}
</style>
<rect id="Rectangle-Copy-4" x="8" y="3" class="st0" width="99" height="78"/>
<rect id="Rectangle-Copy-8" y="0" class="st1" width="103" height="78"/>
<rect id="Rectangle-Copy-18" x="19" y="52" class="st2" width="10" height="16"/>
<rect id="Rectangle-Copy-21" x="19" y="45" class="st3" width="10" height="17"/>
<rect id="Rectangle-Copy-24" x="19" y="40" class="st0" width="10" height="6"/>
<rect id="Rectangle-Copy-19" x="49" y="56" class="st2" width="10" height="12"/>
<rect id="Rectangle-Copy-22" x="49" y="52.8" class="st3" width="10" height="4"/>
<rect id="Rectangle-Copy-25" x="49" y="48" class="st0" width="10" height="6"/>
<rect id="Rectangle-Copy-20" x="79" y="59" class="st2" width="10" height="9"/>
<rect id="Rectangle-Copy-23" x="79" y="46" class="st3" width="10" height="16"/>
<rect id="Rectangle-Copy-26" x="79" y="43" class="st0" width="10" height="4"/>
<g id="UMS5" transform="translate(14.000000, 14.000000)">
	<path id="Shape" class="st4" d="M18.9,0H0.1L0,0V20l0,0h1.2c0.4-0.6,1.3-0.5,1.3-0.5h13.9c0,0,0.9-0.1,1.3,0.5H19l0,0L18.9,0
		L18.9,0z M17.7,15.6c0,0.6-0.5,1.1-1.2,1.1H2.4c-0.6,0-1.2-0.5-1.2-1.1V2c0-0.1,0.1-0.2,0.2-0.2h16.1c0.1,0,0.2,0.1,0.2,0.2
		L17.7,15.6z"/>
	<polygon id="Path" class="st4" points="9.2,0 9.8,0 9.8,17.6 9.2,17.6 	"/>
</g>
<g id="UM3" transform="translate(47.000000, 17.000000)">
	<path id="Shape_00000076588722791516862980000005320390772403657352_" class="st4" d="M13.9,0H0.1C0.1,0,0,0.1,0,0.1v16.8
		C0,16.9,0.1,17,0.1,17H1c0.2,0,0.4,0,0.5-0.2l0.1-0.1c0.1-0.1,0.3-0.2,0.5-0.2h9.8c0.2,0,0.4,0,0.5,0.2l0.1,0.1
		c0.1,0.1,0.3,0.2,0.5,0.2h0.9c0.1,0,0.1-0.1,0.1-0.1V0.1C14,0.1,13.9,0,13.9,0z M12.5,12.9c0,0.5-0.4,0.9-0.9,0.9H2.4
		c-0.5,0-0.9-0.4-0.9-0.9v-11c0-0.2,0.1-0.3,0.3-0.3h10.3c0.2,0,0.3,0.1,0.3,0.3L12.5,12.9L12.5,12.9z"/>
</g>
<g id="UM2e" transform="translate(76.000000, 12.000000)">
	<path id="Shape_00000078736099454935088750000007457930252022171063_" class="st4" d="M13.8,0.5c-0.2,0-0.4,0-0.5-0.2l-0.1-0.1
		C13,0.1,12.9,0,12.7,0H2.3C2.1,0,1.8,0,1.7,0.2L1.6,0.3C1.5,0.5,1.3,0.5,1.1,0.5H0V22h1.1c0.2,0,0.4,0,0.5-0.2l0.1-0.1
		c0.1-0.1,0.3-0.2,0.5-0.2h10.5c0.2,0,0.4,0,0.5,0.2l0.1,0.1c0.1,0.1,0.3,0.2,0.5,0.2H15V0.5H13.8z M13.3,18c0,0.1-0.1,0.1-0.2,0.2
		l-2.5,0.4c-2.1,0.1-4.1,0.1-6.2,0l-2.5-0.4c-0.1,0-0.2-0.1-0.2-0.2V1.9c0-0.1,0.1-0.3,0.3-0.3h11.1c0.1,0,0.2,0.1,0.2,0.3L13.3,18
		L13.3,18L13.3,18z"/>
</g>
</svg>
