<?xml version="1.0" encoding="utf-8"?>
<!-- Generator: Adobe Illustrator 26.3.1, SVG Export Plug-In . SVG Version: 6.00 Build 0)  -->
<svg version="1.1" id="Warstwa_1" xmlns="http://www.w3.org/2000/svg" xmlns:xlink="http://www.w3.org/1999/xlink" x="0px" y="0px"
	 viewBox="0 0 170.6 23.7" style="enable-background:new 0 0 170.6 23.7;" xml:space="preserve">
<style type="text/css">
	.st0{fill:#FFFFFF;}
</style>
<g id="Group_3473" transform="translate(-408.997 -18)">
	<rect id="Rectangle_1260" x="461" y="20.6" class="st0" width="4.6" height="4.6"/>
	<g id="Group_390" transform="translate(430.719 18)">
		<path id="Path_6628" class="st0" d="M52,21.1h4.2V7.8H52V21.1z M52,6.2h4.3V3.1H52V6.2z"/>
		<path id="Path_6629" class="st0" d="M69.5,7.8l-3.4,9.6h-0.4l-3.4-9.6h-4v1.1l4.7,12.2h5.8l4.7-12.2V7.8H69.5z"/>
		<path id="Path_6630" class="st0" d="M75.4,21.1h4.2V7.8h-4.2L75.4,21.1z M75.3,6.2h4.3V3.1h-4.3V6.2z"/>
		<path id="Path_6631" class="st0" d="M87,16.6v-4.3l1.1-1.1h4.6v5.3l-1.5,1.1h-3.1L87,16.6z M92.7,2.6v5.2h-6.8l-3.1,3.1V18
			l3.1,3.1h5.7l1.4-1.2h0.6v1.2h3.4V2.6L92.7,2.6z"/>
	</g>
	<g id="Group_411" transform="translate(408.996 18)">
		<path id="Subtraction_51" class="st0" d="M65.9,21H52V2.6h13.9l4.6,4.6v9.2C70.5,16.4,65.9,21,65.9,21z M56.6,7.2v9.2l7.4,0
			l1.9-1.9V9L64,7.2L56.6,7.2z"/>
	</g>
</g>
</svg>
